<svg width="1519" height="109" viewBox="0 0 1519 109" fill="none" xmlns="http://www.w3.org/2000/svg">
<path d="M25.2344 29.4297C25.2344 31.6328 25.6094 33.5781 26.3594 35.2656C27.1094 36.9062 28.1406 38.3828 29.4531 39.6953C30.8125 40.9609 32.4297 42.1328 34.3047 43.2109C36.2266 44.2422 38.3359 45.2031 40.6328 46.0938C45.2266 47.9219 49.75 49.8438 54.2031 51.8594C58.6562 53.8281 62.6406 56.0781 66.1562 58.6094C69.6719 61.0938 72.5078 63.9531 74.6641 67.1875C76.8203 70.375 77.8984 74.125 77.8984 78.4375C77.8984 83.0781 76.9375 87.25 75.0156 90.9531C73.1406 94.6094 70.5156 97.7031 67.1406 100.234C63.7656 102.766 59.7344 104.711 55.0469 106.07C50.3594 107.43 45.25 108.109 39.7188 108.109C37.3281 108.109 34.8203 107.969 32.1953 107.688C29.5703 107.453 26.9453 107.078 24.3203 106.562C21.7422 106.047 19.2109 105.414 16.7266 104.664C14.2891 103.867 12.0156 102.977 9.90625 101.992C7.84375 101.008 6.01562 99.9062 4.42188 98.6875C2.875 97.4219 1.70312 96.0625 0.90625 94.6094C1.04688 93.25 1.30469 91.7734 1.67969 90.1797C2.05469 88.5859 2.47656 86.9688 2.94531 85.3281C3.46094 83.6406 3.95312 81.9766 4.42188 80.3359C4.9375 78.6953 5.40625 77.125 5.82812 75.625L21.5781 79.9141C21.9062 81.6953 22.1641 83.3125 22.3516 84.7656C22.5391 86.2188 22.75 87.5312 22.9844 88.7031C23.2188 89.875 23.5 90.9297 23.8281 91.8672C24.1562 92.7578 24.6484 93.5547 25.3047 94.2578C26.1016 94.9609 27.1094 95.5469 28.3281 96.0156C29.5469 96.4375 30.8359 96.7891 32.1953 97.0703C33.5547 97.3047 34.9141 97.4922 36.2734 97.6328C37.6797 97.7266 38.9453 97.7734 40.0703 97.7734C42.2734 97.7734 44.2891 97.375 46.1172 96.5781C47.9922 95.7812 49.5859 94.7031 50.8984 93.3438C52.2578 91.9844 53.2891 90.3672 53.9922 88.4922C54.7422 86.6172 55.1172 84.625 55.1172 82.5156C55.1172 79.6094 54.5312 77.1016 53.3594 74.9922C52.1875 72.8359 50.5234 70.9141 48.3672 69.2266C46.2578 67.5391 43.7031 65.9922 40.7031 64.5859C37.7031 63.1328 34.375 61.6562 30.7188 60.1562C26.2656 58.3281 22.3047 56.4531 18.8359 54.5312C15.3672 52.5625 12.4375 50.4531 10.0469 48.2031C7.70312 45.9062 5.89844 43.4219 4.63281 40.75C3.41406 38.0781 2.80469 35.1016 2.80469 31.8203C2.80469 27.8828 3.71875 24.2734 5.54688 20.9922C7.375 17.6641 10.0469 14.8281 13.5625 12.4844C17.0781 10.1406 21.3906 8.3125 26.5 7C31.6094 5.6875 37.4688 5.03125 44.0781 5.03125C47.2188 5.03125 50.1484 5.26562 52.8672 5.73438C55.5859 6.15625 58.1406 6.74219 60.5312 7.49219C62.9219 8.24219 65.1719 9.08594 67.2812 10.0234C69.4375 10.9609 71.5 11.9219 73.4688 12.9062C73.375 16.2812 72.9766 19.6094 72.2734 22.8906C71.5703 26.125 70.8906 29.3125 70.2344 32.4531L58 32.5234C57.7656 30.0859 57.3906 27.8828 56.875 25.9141C56.3594 23.8984 55.3047 22.1875 53.7109 20.7812C52.7734 19.9844 51.625 19.3047 50.2656 18.7422C48.9531 18.1328 47.5703 17.6406 46.1172 17.2656C44.7109 16.8906 43.3047 16.6328 41.8984 16.4922C40.5391 16.3047 39.3672 16.2109 38.3828 16.2109C36.4609 16.2109 34.6797 16.5156 33.0391 17.125C31.4453 17.6875 30.0625 18.5312 28.8906 19.6562C27.7656 20.7812 26.875 22.1641 26.2188 23.8047C25.5625 25.4453 25.2344 27.3203 25.2344 29.4297ZM180.484 97.3516L180.906 104.805C177.578 105.602 174.062 106.188 170.359 106.562C166.656 106.984 162.977 107.195 159.32 107.195C157.492 107.195 155.828 107.078 154.328 106.844C152.828 106.609 151.539 106.234 150.461 105.719C149.383 105.203 148.539 104.523 147.93 103.68C147.367 102.789 147.086 101.711 147.086 100.445C147.086 98.6172 147.109 96.5781 147.156 94.3281C147.203 92.0781 147.25 89.7109 147.297 87.2266C147.344 84.6953 147.391 82.1172 147.438 79.4922C147.484 76.8672 147.508 74.2891 147.508 71.7578V70.2109C147.508 66.6953 147.461 63.3672 147.367 60.2266C147.273 57.0391 146.945 54.2734 146.383 51.9297C145.82 49.5391 144.93 47.6406 143.711 46.2344C142.539 44.8281 140.852 44.125 138.648 44.125C136.914 44.125 135.203 44.4062 133.516 44.9688C131.875 45.4844 130.328 46.1875 128.875 47.0781C127.422 47.9688 126.133 49 125.008 50.1719C123.93 51.3438 123.086 52.5391 122.477 53.7578V87.5781C122.477 89.6406 122.5 91.3516 122.547 92.7109C122.641 94.0234 122.922 95.1016 123.391 95.9453C123.859 96.7891 124.609 97.4453 125.641 97.9141C126.672 98.3828 128.125 98.7812 130 99.1094L130.633 106.844L127.891 106.703C123.766 106.469 120.297 106.281 117.484 106.141C114.672 106.047 112.328 106 110.453 106C107.359 106 104.289 106.07 101.242 106.211C98.1953 106.352 95.0547 106.562 91.8203 106.844L92.1719 99.1797C94.1406 98.8984 95.6641 98.5938 96.7422 98.2656C97.8672 97.8906 98.6875 97.3516 99.2031 96.6484C99.7656 95.9453 100.117 94.9844 100.258 93.7656C100.398 92.5469 100.469 90.9531 100.469 88.9844V16.4922C100.469 15.4609 100.445 14.5 100.398 13.6094C100.352 12.7188 100.234 11.875 100.047 11.0781C99.1562 10.9375 98.2188 10.8203 97.2344 10.7266C96.25 10.6328 95.1953 10.5859 94.0703 10.5859H87.6719V3.55469C91.4688 2.61719 95.6406 1.96094 100.188 1.58594C104.781 1.16406 109.656 0.953125 114.812 0.953125C116.547 0.953125 117.906 1.04688 118.891 1.23438C119.922 1.42188 120.695 1.77344 121.211 2.28906C121.773 2.80469 122.125 3.55469 122.266 4.53906C122.406 5.47656 122.477 6.71875 122.477 8.26562V42.6484C125.992 39.7422 130 37.4688 134.5 35.8281C139.047 34.1406 143.711 33.2969 148.492 33.2969C155.758 33.2969 161.055 35.3359 164.383 39.4141C167.758 43.4453 169.445 49.3047 169.445 56.9922V87.7891C169.445 89.8984 169.539 91.75 169.727 93.3438C169.914 94.8906 170.125 96.2266 170.359 97.3516H180.484ZM270.133 97.3516V104.172C267.18 105.062 263.898 105.695 260.289 106.07C256.727 106.492 252.883 106.703 248.758 106.703C247.352 106.703 246.062 106.609 244.891 106.422C243.719 106.281 242.664 106 241.727 105.578C239.664 103.844 238.141 101.43 237.156 98.3359C234.344 101.102 231.18 103.352 227.664 105.086C224.148 106.773 220.141 107.617 215.641 107.617C212.125 107.617 208.891 107.172 205.938 106.281C202.984 105.391 200.453 104.078 198.344 102.344C196.234 100.609 194.594 98.4531 193.422 95.875C192.25 93.2969 191.664 90.2969 191.664 86.875C191.664 79.375 194.852 73.75 201.227 70C207.648 66.2031 217.398 64.3047 230.477 64.3047H236.523V60.6484C236.523 54.1797 235.867 49.4922 234.555 46.5859C233.289 43.6797 231.039 42.2266 227.805 42.2266C225.695 42.2266 223.68 42.6016 221.758 43.3516C219.836 44.1016 218.008 45.1562 216.273 46.5156C214.539 47.8281 212.875 49.3984 211.281 51.2266C209.734 53.0547 208.234 55.0234 206.781 57.1328L193.562 48.6953C193.75 46.5859 194.734 44.5938 196.516 42.7188C198.344 40.8438 200.734 39.2031 203.688 37.7969C206.641 36.3906 210.039 35.2891 213.883 34.4922C217.727 33.6953 221.781 33.2969 226.047 33.2969C236.781 33.2969 244.867 35.4766 250.305 39.8359C255.742 44.1953 258.461 51.1797 258.461 60.7891C258.461 61.7266 258.461 62.7812 258.461 63.9531C258.461 65.0781 258.438 66.6016 258.391 68.5234C258.391 70.3984 258.391 72.8125 258.391 75.7656C258.391 78.6719 258.391 82.3984 258.391 86.9453C258.391 89.4297 258.461 91.5156 258.602 93.2031C258.789 94.8906 259 96.25 259.234 97.2812C260.031 97.3281 260.852 97.3516 261.695 97.3516C262.586 97.3516 263.477 97.3516 264.367 97.3516H270.133ZM235.961 92.0781C236.102 89.2188 236.219 86.1953 236.312 83.0078C236.453 79.7734 236.523 76.2578 236.523 72.4609H229.773C224.523 72.4609 220.469 73.6562 217.609 76.0469C214.797 78.4375 213.391 81.8359 213.391 86.2422C213.391 90.2266 214.258 93.1328 215.992 94.9609C217.773 96.7422 220.094 97.6328 222.953 97.6328C225.062 97.6328 227.219 97.1406 229.422 96.1562C231.625 95.125 233.805 93.7656 235.961 92.0781ZM313.094 35.2656V48.4141C314.781 46.1172 316.492 44.0312 318.227 42.1562C319.961 40.2812 321.812 38.6875 323.781 37.375C325.797 36.0156 327.953 34.9844 330.25 34.2812C332.594 33.5781 335.148 33.2266 337.914 33.2266C340.398 33.2266 342.438 33.4141 344.031 33.7891C345.672 34.1641 347.102 34.5859 348.32 35.0547L346.703 55.9375H336.438L334.68 45.4609C334.164 45.4141 333.695 45.3906 333.273 45.3906C332.852 45.3906 332.453 45.3906 332.078 45.3906C329.031 45.3906 326.383 46.0234 324.133 47.2891C321.883 48.5547 320.008 50.2188 318.508 52.2812C317.055 54.3438 315.977 56.6641 315.273 59.2422C314.57 61.8203 314.219 64.4453 314.219 67.1172V87.3672C314.219 89.6172 314.266 91.4453 314.359 92.8516C314.453 94.2578 314.758 95.4062 315.273 96.2969C315.836 97.1406 316.703 97.7969 317.875 98.2656C319.094 98.7344 320.805 99.1328 323.008 99.4609L323.711 106.844C318.461 106.609 314.102 106.398 310.633 106.211C307.164 106.07 304.375 106 302.266 106C299.172 106 296.102 106.07 293.055 106.211C290.008 106.352 286.867 106.562 283.633 106.844L283.984 99.4609C286.047 99.1797 287.641 98.875 288.766 98.5469C289.891 98.1719 290.711 97.7031 291.227 97.1406C291.789 96.5312 292.117 95.7812 292.211 94.8906C292.305 94 292.352 92.875 292.352 91.5156C292.352 91.4219 292.352 91.2109 292.352 90.8828C292.352 90.5078 292.352 89.8281 292.352 88.8438C292.352 87.8594 292.328 86.4531 292.281 84.625C292.281 82.75 292.281 80.2656 292.281 77.1719C292.281 74.0781 292.281 70.2812 292.281 65.7812C292.281 61.2344 292.281 55.75 292.281 49.3281C292.281 48.5312 292.258 47.7344 292.211 46.9375C292.211 46.0938 292.141 45.2969 292 44.5469C291.344 44.3594 290.664 44.2188 289.961 44.125C289.258 44.0312 288.461 43.9844 287.57 43.9844H279.555V36.3203C280.82 35.9922 282.344 35.7109 284.125 35.4766C285.953 35.1953 287.898 34.9609 289.961 34.7734C292.023 34.5859 294.133 34.4453 296.289 34.3516C298.492 34.2109 300.625 34.1406 302.688 34.1406C303.438 34.1406 304.164 34.1641 304.867 34.2109C305.57 34.2109 306.32 34.2578 307.117 34.3516C307.914 34.3984 308.781 34.4922 309.719 34.6328C310.703 34.7734 311.828 34.9844 313.094 35.2656ZM422.781 90.25L426.508 96.7188C423.273 100.469 419.242 103.234 414.414 105.016C409.633 106.75 404.031 107.617 397.609 107.617C391.562 107.617 386.078 106.797 381.156 105.156C376.281 103.469 372.109 101.055 368.641 97.9141C365.219 94.7266 362.57 90.8125 360.695 86.1719C358.82 81.5312 357.883 76.2109 357.883 70.2109C357.883 64.6328 358.82 59.5703 360.695 55.0234C362.57 50.4766 365.219 46.6094 368.641 43.4219C372.109 40.1875 376.281 37.7031 381.156 35.9688C386.031 34.1875 391.492 33.2969 397.539 33.2969C402.039 33.2969 406.211 33.9297 410.055 35.1953C413.898 36.4609 417.227 38.2891 420.039 40.6797C422.852 43.0703 425.031 46 426.578 49.4688C428.172 52.8906 428.969 56.7812 428.969 61.1406C428.969 63.7656 428.711 65.875 428.195 67.4688C427.68 69.0625 426.883 70.3047 425.805 71.1953C424.727 72.0391 423.344 72.6016 421.656 72.8828C419.969 73.1641 417.977 73.3047 415.68 73.3047H380.312C381.109 80.8516 383.406 86.6172 387.203 90.6016C391.047 94.5859 396.32 96.5781 403.023 96.5781C406.398 96.5781 409.727 96.0859 413.008 95.1016C416.289 94.0703 419.547 92.4531 422.781 90.25ZM380.242 64.0234H407.875C407.922 63.7891 407.945 63.5781 407.945 63.3906C407.945 63.2031 407.945 62.9922 407.945 62.7578C407.945 59.9922 407.688 57.3906 407.172 54.9531C406.703 52.5156 405.93 50.4062 404.852 48.625C403.82 46.7969 402.484 45.3672 400.844 44.3359C399.203 43.2578 397.234 42.7188 394.938 42.7188C390.438 42.7188 386.992 44.5234 384.602 48.1328C382.211 51.6953 380.758 56.9922 380.242 64.0234ZM517.844 7.84375V87.9297C517.844 90.1328 517.914 91.9844 518.055 93.4844C518.195 94.9844 518.383 96.2734 518.617 97.3516H530.57V104.242C527.336 105.039 523.938 105.648 520.375 106.07C516.812 106.539 513.109 106.773 509.266 106.773C507.203 106.773 505.469 106.656 504.062 106.422C502.703 106.188 501.555 105.742 500.617 105.086C499.727 104.43 499.023 103.516 498.508 102.344C497.992 101.125 497.57 99.5547 497.242 97.6328C494.43 101.148 491.078 103.703 487.188 105.297C483.344 106.844 479.195 107.617 474.742 107.617C470.195 107.617 465.977 106.773 462.086 105.086C458.242 103.398 454.891 100.984 452.031 97.8438C449.219 94.7031 447.016 90.9297 445.422 86.5234C443.828 82.0703 443.031 77.1016 443.031 71.6172C443.031 65.5703 443.758 60.1797 445.211 55.4453C446.711 50.6641 448.844 46.6094 451.609 43.2812C454.422 39.9531 457.82 37.4219 461.805 35.6875C465.836 33.9062 470.383 33.0156 475.445 33.0156C482.945 33.0156 489.766 35.1484 495.906 39.4141V16.7031C495.906 15.7188 495.883 14.7578 495.836 13.8203C495.789 12.8828 495.719 11.9688 495.625 11.0781C494.688 10.9375 493.727 10.8203 492.742 10.7266C491.758 10.6328 490.68 10.5859 489.508 10.5859H483.039V3.55469C486.695 2.66406 490.891 2.00781 495.625 1.58594C500.359 1.16406 505.867 0.953125 512.148 0.953125C513.461 0.953125 514.492 1.09375 515.242 1.375C516.039 1.60938 516.625 2.00781 517 2.57031C517.375 3.13281 517.609 3.85938 517.703 4.75C517.797 5.59375 517.844 6.625 517.844 7.84375ZM496.117 85.75C496.117 79.1875 496.094 72.8359 496.047 66.6953C496 60.5078 495.883 54.3672 495.695 48.2734C493.586 46.6328 491.219 45.3672 488.594 44.4766C485.969 43.5859 483.578 43.1406 481.422 43.1406C478.422 43.1406 475.914 43.9375 473.898 45.5312C471.93 47.0781 470.359 49.1406 469.188 51.7188C468.016 54.2969 467.195 57.25 466.727 60.5781C466.258 63.9062 466.023 67.3281 466.023 70.8438C466.023 79.8906 467.266 86.5703 469.75 90.8828C472.281 95.1953 476.078 97.3516 481.141 97.3516C484.516 97.3516 487.516 96.3438 490.141 94.3281C492.766 92.3125 494.758 89.4531 496.117 85.75ZM575.078 106.914V95.7344H582.531C583.609 95.7344 584.617 95.7344 585.555 95.7344C586.539 95.6875 587.5 95.5938 588.438 95.4531C588.953 93.625 589.211 91.1172 589.211 87.9297V27.1094C589.211 24.7656 589.164 22.8438 589.07 21.3438C588.977 19.8438 588.766 18.5312 588.438 17.4062C587.547 17.2188 586.609 17.125 585.625 17.125C584.688 17.0781 583.68 17.0547 582.602 17.0547H575.078V7.5625C579.203 7.09375 583.258 6.76562 587.242 6.57812C591.273 6.34375 595.422 6.22656 599.688 6.22656C605.031 6.22656 609.859 6.29688 614.172 6.4375C618.531 6.57812 622.398 6.88281 625.773 7.35156V17.0547H618.25C617.172 17.0547 616.141 17.0781 615.156 17.125C614.219 17.125 613.281 17.2188 612.344 17.4062C612.109 18.3438 611.922 19.3984 611.781 20.5703C611.688 21.6953 611.641 23.0781 611.641 24.7188V87.7891C611.641 89.4297 611.688 90.8828 611.781 92.1484C611.922 93.3672 612.109 94.4688 612.344 95.4531C613.281 95.5938 614.219 95.6875 615.156 95.7344C616.141 95.7344 617.172 95.7344 618.25 95.7344H625.703V106.914C621.297 106.539 617.148 106.281 613.258 106.141C609.367 106.047 605.664 106 602.148 106C597.883 106 593.547 106.047 589.141 106.141C584.734 106.281 580.047 106.539 575.078 106.914ZM716.336 56.3594V87.7891C716.336 89.8984 716.406 91.75 716.547 93.3438C716.734 94.8906 716.969 96.2266 717.25 97.3516H727.023L727.867 104.805C721.164 106.398 713.922 107.195 706.141 107.195C704.359 107.195 702.719 107.078 701.219 106.844C699.766 106.609 698.5 106.234 697.422 105.719C696.344 105.156 695.5 104.453 694.891 103.609C694.281 102.766 693.977 101.711 693.977 100.445C693.977 99.5547 694 98.5234 694.047 97.3516C694.094 96.1328 694.141 94.8906 694.188 93.625C694.234 92.3594 694.281 91.0938 694.328 89.8281C694.375 88.5156 694.398 87.2969 694.398 86.1719V60.2969C694.398 57.4375 694.164 55.0234 693.695 53.0547C693.273 51.0391 692.641 49.3984 691.797 48.1328C691 46.8672 690.016 45.9531 688.844 45.3906C687.719 44.7812 686.477 44.4766 685.117 44.4766C683.758 44.4766 682.352 44.7109 680.898 45.1797C679.445 45.6484 677.992 46.2812 676.539 47.0781C675.133 47.8281 673.75 48.7188 672.391 49.75C671.078 50.7812 669.883 51.8828 668.805 53.0547V89.2656C668.805 91 668.875 92.4297 669.016 93.5547C669.156 94.6797 669.484 95.5938 670 96.2969C670.516 97 671.266 97.5625 672.25 97.9844C673.281 98.4062 674.641 98.7812 676.328 99.1094L677.031 106.844C672.484 106.609 668.523 106.398 665.148 106.211C661.82 106.07 659.008 106 656.711 106C650.242 106 644.055 106.281 638.148 106.844L638.5 99.1094C640.469 98.875 641.992 98.5938 643.07 98.2656C644.195 97.8906 645.039 97.3516 645.602 96.6484C646.164 95.8984 646.516 94.9141 646.656 93.6953C646.797 92.4766 646.867 90.8828 646.867 88.9141V49.6797C646.867 48.7891 646.844 47.9219 646.797 47.0781C646.75 46.1875 646.68 45.3438 646.586 44.5469C645.93 44.3125 645.25 44.1719 644.547 44.125C643.844 44.0312 643.023 43.9844 642.086 43.9844H634.07V36.1797C635.336 35.8984 636.836 35.6406 638.57 35.4062C640.352 35.1719 642.227 34.9609 644.195 34.7734C646.164 34.5391 648.18 34.375 650.242 34.2812C652.305 34.1406 654.297 34.0703 656.219 34.0703C657.859 34.0703 659.523 34.1641 661.211 34.3516C662.945 34.4922 665.195 34.7969 667.961 35.2656V43.4922C672.086 40.1172 676.562 37.5859 681.391 35.8984C686.266 34.2109 690.953 33.3672 695.453 33.3672C698.688 33.3672 701.594 33.8594 704.172 34.8438C706.75 35.8281 708.93 37.3047 710.711 39.2734C712.539 41.1953 713.922 43.5859 714.859 46.4453C715.844 49.3047 716.336 52.6094 716.336 56.3594ZM781.305 86.4531C783.836 79.3281 786.367 72.2969 788.898 65.3594C791.43 58.4219 793.75 51.4844 795.859 44.5469C795.203 44.3125 794.5 44.1719 793.75 44.125C793.047 44.0312 792.203 43.9844 791.219 43.9844H787.492L788.617 35.4766C791.477 34.9609 794.383 34.5859 797.336 34.3516C800.336 34.1172 803.453 34 806.688 34C809.688 34 812.477 34.1172 815.055 34.3516C817.68 34.5859 820.258 34.9609 822.789 35.4766V43.9844H819.344C818.219 43.9844 817.117 44.0312 816.039 44.125C815.008 44.1719 813.977 44.3125 812.945 44.5469C812.242 46.1406 811.398 48.1562 810.414 50.5938C809.477 52.9844 808.445 55.6094 807.32 58.4688C806.195 61.3281 805.023 64.3516 803.805 67.5391C802.586 70.6797 801.344 73.7969 800.078 76.8906C798.859 79.9844 797.664 82.9844 796.492 85.8906C795.367 88.75 794.312 91.3516 793.328 93.6953L787.984 106.281C786.344 106.422 784.68 106.516 782.992 106.562C781.305 106.609 779.57 106.633 777.789 106.633C776.102 106.633 774.508 106.562 773.008 106.422C771.555 106.328 769.961 105.953 768.227 105.297L744.812 49.6797C744.438 48.7422 744.039 47.8516 743.617 47.0078C743.242 46.1641 742.797 45.3438 742.281 44.5469C741.484 44.3125 740.664 44.1719 739.82 44.125C738.977 44.0312 738.086 43.9844 737.148 43.9844H733.352L732.016 35.4766C734.547 34.9141 737.57 34.5391 741.086 34.3516C744.648 34.1172 748.633 34 753.039 34C754.445 34 755.828 34.0234 757.188 34.0703C758.594 34.1172 760.047 34.1875 761.547 34.2812C763.047 34.375 764.641 34.5156 766.328 34.7031C768.016 34.8906 769.867 35.1484 771.883 35.4766C772.117 36.6484 772.352 37.9609 772.586 39.4141C772.82 40.8203 773.055 42.3438 773.289 43.9844H769.984C769.141 43.9844 768.367 44.0312 767.664 44.125C766.961 44.1719 766.328 44.3125 765.766 44.5469C766.047 45.5781 766.375 46.6094 766.75 47.6406C767.172 48.625 767.57 49.6562 767.945 50.7344C770.805 58.8906 773.336 65.8984 775.539 71.7578C777.789 77.5703 779.711 82.4688 781.305 86.4531ZM895.281 90.25L899.008 96.7188C895.773 100.469 891.742 103.234 886.914 105.016C882.133 106.75 876.531 107.617 870.109 107.617C864.062 107.617 858.578 106.797 853.656 105.156C848.781 103.469 844.609 101.055 841.141 97.9141C837.719 94.7266 835.07 90.8125 833.195 86.1719C831.32 81.5312 830.383 76.2109 830.383 70.2109C830.383 64.6328 831.32 59.5703 833.195 55.0234C835.07 50.4766 837.719 46.6094 841.141 43.4219C844.609 40.1875 848.781 37.7031 853.656 35.9688C858.531 34.1875 863.992 33.2969 870.039 33.2969C874.539 33.2969 878.711 33.9297 882.555 35.1953C886.398 36.4609 889.727 38.2891 892.539 40.6797C895.352 43.0703 897.531 46 899.078 49.4688C900.672 52.8906 901.469 56.7812 901.469 61.1406C901.469 63.7656 901.211 65.875 900.695 67.4688C900.18 69.0625 899.383 70.3047 898.305 71.1953C897.227 72.0391 895.844 72.6016 894.156 72.8828C892.469 73.1641 890.477 73.3047 888.18 73.3047H852.812C853.609 80.8516 855.906 86.6172 859.703 90.6016C863.547 94.5859 868.82 96.5781 875.523 96.5781C878.898 96.5781 882.227 96.0859 885.508 95.1016C888.789 94.0703 892.047 92.4531 895.281 90.25ZM852.742 64.0234H880.375C880.422 63.7891 880.445 63.5781 880.445 63.3906C880.445 63.2031 880.445 62.9922 880.445 62.7578C880.445 59.9922 880.188 57.3906 879.672 54.9531C879.203 52.5156 878.43 50.4062 877.352 48.625C876.32 46.7969 874.984 45.3672 873.344 44.3359C871.703 43.2578 869.734 42.7188 867.438 42.7188C862.938 42.7188 859.492 44.5234 857.102 48.1328C854.711 51.6953 853.258 56.9922 852.742 64.0234ZM917.078 81.8125L930.227 84.2734L931.281 95.5938C932.781 96.3906 934.469 96.9766 936.344 97.3516C938.266 97.7266 940.539 97.9141 943.164 97.9141C946.867 97.9141 949.656 97.0703 951.531 95.3828C953.453 93.6484 954.414 91.5391 954.414 89.0547C954.414 87.6953 954.039 86.4766 953.289 85.3984C952.539 84.2734 951.555 83.2656 950.336 82.375C949.117 81.4844 947.711 80.6875 946.117 79.9844C944.523 79.2344 942.883 78.5547 941.195 77.9453C939.508 77.2891 937.844 76.6797 936.203 76.1172C934.609 75.5547 933.133 74.9688 931.773 74.3594C929.008 73.1875 926.57 71.9453 924.461 70.6328C922.352 69.2734 920.547 67.7969 919.047 66.2031C917.594 64.6094 916.492 62.8281 915.742 60.8594C914.992 58.8906 914.617 56.6641 914.617 54.1797C914.617 47.6172 917.336 42.4844 922.773 38.7812C928.211 35.0781 936.203 33.2266 946.75 33.2266C952.422 33.2266 957.391 33.7656 961.656 34.8438C965.969 35.875 969.461 37.3516 972.133 39.2734C971.852 41.1953 971.359 43.7031 970.656 46.7969C970 49.8438 969.344 52.9844 968.688 56.2188L957.297 54.3906C957.156 52.5156 957.016 50.7578 956.875 49.1172C956.781 47.4766 956.664 45.9766 956.523 44.6172C954.977 43.8672 953.289 43.3984 951.461 43.2109C949.633 42.9766 947.594 42.8594 945.344 42.8594C941.969 42.8594 939.391 43.5625 937.609 44.9688C935.828 46.3281 934.938 48.2734 934.938 50.8047C934.938 52.7734 935.641 54.4375 937.047 55.7969C938.453 57.1094 940.211 58.2812 942.32 59.3125C944.477 60.3438 946.797 61.2812 949.281 62.125C951.812 62.9219 954.203 63.7656 956.453 64.6562C963.203 67.375 968.195 70.375 971.43 73.6562C974.664 76.8906 976.281 80.7344 976.281 85.1875C976.281 89.1719 975.461 92.5938 973.82 95.4531C972.18 98.2656 969.93 100.586 967.07 102.414C964.258 104.195 960.953 105.508 957.156 106.352C953.359 107.195 949.328 107.617 945.062 107.617C942.25 107.617 939.297 107.43 936.203 107.055C933.109 106.68 930.133 106.164 927.273 105.508C924.461 104.805 921.836 104.008 919.398 103.117C917.008 102.18 915.086 101.148 913.633 100.023L917.078 81.8125ZM998.219 35.125L999.977 23.1016C1000.16 21.9766 1000.47 20.7812 1000.89 19.5156C1001.31 18.2031 1001.78 16.9375 1002.3 15.7188L1003.35 13.0469H1019.31V35.125H1040.97V38.7812C1040.97 40.0469 1040.78 41.0547 1040.41 41.8047C1040.03 42.5547 1039.52 43.1172 1038.86 43.4922C1038.2 43.8672 1037.41 44.125 1036.47 44.2656C1035.58 44.3594 1034.59 44.4062 1033.52 44.4062C1032.91 44.4062 1032.27 44.4062 1031.62 44.4062C1030.96 44.3594 1030.3 44.3359 1029.65 44.3359H1019.31V83.2188C1019.31 88 1019.85 91.4922 1020.93 93.6953C1022.01 95.8984 1023.95 97 1026.77 97C1027.7 97 1028.57 96.8359 1029.37 96.5078C1030.21 96.1328 1030.96 95.6875 1031.62 95.1719C1032.27 94.6562 1032.81 94.1172 1033.23 93.5547C1033.66 92.9453 1033.91 92.4297 1034.01 92.0078C1034.05 91.8672 1034.12 91.5156 1034.22 90.9531C1034.31 90.3438 1034.41 89.6406 1034.5 88.8438C1034.64 88 1034.78 87.1094 1034.92 86.1719C1035.06 85.1875 1035.18 84.2734 1035.27 83.4297H1048V101.078C1044.67 103.141 1040.88 104.664 1036.61 105.648C1032.34 106.633 1027.61 107.125 1022.41 107.125C1014.44 107.125 1008.27 105.32 1003.91 101.711C999.555 98.0547 997.375 92.3125 997.375 84.4844V44.3359H983.734V39.9062C983.734 38.6875 984.086 37.8438 984.789 37.375C985.539 36.8594 986.547 36.4844 987.812 36.25C989.5 35.9688 991.234 35.7578 993.016 35.6172C994.797 35.4766 996.531 35.3125 998.219 35.125ZM1158.18 86.4531V61.4922C1158.18 58.1172 1158.06 55.3516 1157.83 53.1953C1157.64 50.9922 1157.27 49.2578 1156.7 47.9922C1156.19 46.7266 1155.46 45.8594 1154.52 45.3906C1153.63 44.9219 1152.48 44.6875 1151.08 44.6875C1149.16 44.6875 1147.35 44.9453 1145.66 45.4609C1144.02 45.9766 1142.5 46.6797 1141.09 47.5703C1139.73 48.4141 1138.52 49.3984 1137.44 50.5234C1136.36 51.6484 1135.47 52.7969 1134.77 53.9688V90.1797C1134.77 91.8672 1134.84 93.25 1134.98 94.3281C1135.16 95.4062 1135.56 96.2734 1136.17 96.9297C1136.78 97.5859 1137.65 98.125 1138.77 98.5469C1139.95 98.9219 1141.52 99.25 1143.48 99.5312L1143.84 106.844C1141.91 106.703 1139.99 106.586 1138.07 106.492C1136.15 106.398 1134.27 106.305 1132.45 106.211C1130.62 106.164 1128.88 106.117 1127.24 106.07C1125.6 106.023 1124.12 106 1122.81 106C1116.58 106 1110.93 106.281 1105.87 106.844V99.1094C1107.6 98.8281 1108.94 98.5234 1109.88 98.1953C1110.81 97.8203 1111.49 97.3281 1111.91 96.7188C1112.38 96.1094 1112.64 95.3125 1112.69 94.3281C1112.78 93.3438 1112.83 92.0547 1112.83 90.4609V61.4922C1112.83 58.0703 1112.73 55.2812 1112.55 53.125C1112.36 50.9219 1112.01 49.2109 1111.49 47.9922C1111.02 46.7734 1110.37 45.9297 1109.52 45.4609C1108.68 44.9922 1107.6 44.7578 1106.29 44.7578C1104.46 44.7578 1102.66 45.0156 1100.88 45.5312C1099.14 46 1097.5 46.6562 1095.95 47.5C1094.45 48.3438 1093.12 49.3281 1091.95 50.4531C1090.77 51.5781 1089.88 52.7734 1089.27 54.0391V88.5625C1089.27 90.3906 1089.32 91.9141 1089.41 93.1328C1089.51 94.3047 1089.77 95.2891 1090.19 96.0859C1090.61 96.8828 1091.27 97.5156 1092.16 97.9844C1093.05 98.4531 1094.31 98.8281 1095.95 99.1094L1096.23 106.844C1092.25 106.562 1088.5 106.352 1084.98 106.211C1081.47 106.07 1078.02 106 1074.65 106C1071.88 106 1069.19 106.07 1066.56 106.211C1063.94 106.398 1061.36 106.609 1058.83 106.844V99.5312C1060.84 99.3906 1062.41 99.1328 1063.54 98.7578C1064.71 98.3828 1065.58 97.8438 1066.14 97.1406C1066.7 96.3906 1067.03 95.4766 1067.12 94.3984C1067.27 93.2734 1067.34 91.8906 1067.34 90.25V49.9609C1067.34 49.0234 1067.31 48.1094 1067.27 47.2188C1067.22 46.2812 1067.15 45.3906 1067.05 44.5469C1065.98 44.3125 1064.85 44.1719 1063.68 44.125C1062.51 44.0312 1061.29 43.9844 1060.02 43.9844H1054.54V36.3203C1055.76 35.9922 1057.26 35.7109 1059.04 35.4766C1060.82 35.1953 1062.74 34.9609 1064.8 34.7734C1066.87 34.5391 1069 34.375 1071.2 34.2812C1073.41 34.1406 1075.54 34.0703 1077.6 34.0703C1079.15 34.0703 1080.74 34.1641 1082.38 34.3516C1084.02 34.4922 1086.09 34.7969 1088.57 35.2656C1088.57 36.0625 1088.59 36.8359 1088.64 37.5859C1088.69 38.3359 1088.71 39.1094 1088.71 39.9062C1088.71 40.375 1088.69 40.8906 1088.64 41.4531C1088.64 41.9688 1088.64 42.6719 1088.64 43.5625C1092.62 40.375 1096.87 37.8906 1101.37 36.1094C1105.91 34.2812 1110.74 33.3672 1115.85 33.3672C1124.66 33.3672 1130.52 36.7656 1133.43 43.5625C1135.12 42.25 1136.9 40.9844 1138.77 39.7656C1140.65 38.5 1142.64 37.3984 1144.75 36.4609C1146.91 35.4766 1149.2 34.7031 1151.64 34.1406C1154.08 33.5312 1156.68 33.2266 1159.45 33.2266C1166.43 33.2266 1171.61 35.1016 1174.98 38.8516C1178.41 42.5547 1180.12 48.1094 1180.12 55.5156V87.7891C1180.12 89.8984 1180.21 91.75 1180.4 93.3438C1180.59 94.8906 1180.8 96.2266 1181.03 97.3516H1190.8L1191.58 104.805C1184.92 106.398 1177.7 107.195 1169.92 107.195C1168.09 107.195 1166.43 107.078 1164.93 106.844C1163.43 106.609 1162.14 106.234 1161.06 105.719C1159.98 105.203 1159.14 104.523 1158.53 103.68C1157.97 102.789 1157.69 101.711 1157.69 100.445C1157.69 99.5547 1157.71 98.5234 1157.76 97.3516C1157.8 96.1797 1157.85 94.9844 1157.9 93.7656C1157.99 92.5469 1158.06 91.3047 1158.11 90.0391C1158.16 88.7734 1158.18 87.5781 1158.18 86.4531ZM1267.8 90.25L1271.52 96.7188C1268.29 100.469 1264.26 103.234 1259.43 105.016C1254.65 106.75 1249.05 107.617 1242.62 107.617C1236.58 107.617 1231.09 106.797 1226.17 105.156C1221.3 103.469 1217.12 101.055 1213.66 97.9141C1210.23 94.7266 1207.59 90.8125 1205.71 86.1719C1203.84 81.5312 1202.9 76.2109 1202.9 70.2109C1202.9 64.6328 1203.84 59.5703 1205.71 55.0234C1207.59 50.4766 1210.23 46.6094 1213.66 43.4219C1217.12 40.1875 1221.3 37.7031 1226.17 35.9688C1231.05 34.1875 1236.51 33.2969 1242.55 33.2969C1247.05 33.2969 1251.23 33.9297 1255.07 35.1953C1258.91 36.4609 1262.24 38.2891 1265.05 40.6797C1267.87 43.0703 1270.05 46 1271.59 49.4688C1273.19 52.8906 1273.98 56.7812 1273.98 61.1406C1273.98 63.7656 1273.73 65.875 1273.21 67.4688C1272.7 69.0625 1271.9 70.3047 1270.82 71.1953C1269.74 72.0391 1268.36 72.6016 1266.67 72.8828C1264.98 73.1641 1262.99 73.3047 1260.7 73.3047H1225.33C1226.12 80.8516 1228.42 86.6172 1232.22 90.6016C1236.06 94.5859 1241.34 96.5781 1248.04 96.5781C1251.41 96.5781 1254.74 96.0859 1258.02 95.1016C1261.3 94.0703 1264.56 92.4531 1267.8 90.25ZM1225.26 64.0234H1252.89C1252.94 63.7891 1252.96 63.5781 1252.96 63.3906C1252.96 63.2031 1252.96 62.9922 1252.96 62.7578C1252.96 59.9922 1252.7 57.3906 1252.19 54.9531C1251.72 52.5156 1250.95 50.4062 1249.87 48.625C1248.84 46.7969 1247.5 45.3672 1245.86 44.3359C1244.22 43.2578 1242.25 42.7188 1239.95 42.7188C1235.45 42.7188 1232.01 44.5234 1229.62 48.1328C1227.23 51.6953 1225.77 56.9922 1225.26 64.0234ZM1366.45 56.3594V87.7891C1366.45 89.8984 1366.52 91.75 1366.66 93.3438C1366.84 94.8906 1367.08 96.2266 1367.36 97.3516H1377.13L1377.98 104.805C1371.27 106.398 1364.03 107.195 1356.25 107.195C1354.47 107.195 1352.83 107.078 1351.33 106.844C1349.88 106.609 1348.61 106.234 1347.53 105.719C1346.45 105.156 1345.61 104.453 1345 103.609C1344.39 102.766 1344.09 101.711 1344.09 100.445C1344.09 99.5547 1344.11 98.5234 1344.16 97.3516C1344.2 96.1328 1344.25 94.8906 1344.3 93.625C1344.34 92.3594 1344.39 91.0938 1344.44 89.8281C1344.48 88.5156 1344.51 87.2969 1344.51 86.1719V60.2969C1344.51 57.4375 1344.27 55.0234 1343.8 53.0547C1343.38 51.0391 1342.75 49.3984 1341.91 48.1328C1341.11 46.8672 1340.12 45.9531 1338.95 45.3906C1337.83 44.7812 1336.59 44.4766 1335.23 44.4766C1333.87 44.4766 1332.46 44.7109 1331.01 45.1797C1329.55 45.6484 1328.1 46.2812 1326.65 47.0781C1325.24 47.8281 1323.86 48.7188 1322.5 49.75C1321.19 50.7812 1319.99 51.8828 1318.91 53.0547V89.2656C1318.91 91 1318.98 92.4297 1319.12 93.5547C1319.27 94.6797 1319.59 95.5938 1320.11 96.2969C1320.62 97 1321.38 97.5625 1322.36 97.9844C1323.39 98.4062 1324.75 98.7812 1326.44 99.1094L1327.14 106.844C1322.59 106.609 1318.63 106.398 1315.26 106.211C1311.93 106.07 1309.12 106 1306.82 106C1300.35 106 1294.16 106.281 1288.26 106.844L1288.61 99.1094C1290.58 98.875 1292.1 98.5938 1293.18 98.2656C1294.3 97.8906 1295.15 97.3516 1295.71 96.6484C1296.27 95.8984 1296.62 94.9141 1296.77 93.6953C1296.91 92.4766 1296.98 90.8828 1296.98 88.9141V49.6797C1296.98 48.7891 1296.95 47.9219 1296.91 47.0781C1296.86 46.1875 1296.79 45.3438 1296.7 44.5469C1296.04 44.3125 1295.36 44.1719 1294.66 44.125C1293.95 44.0312 1293.13 43.9844 1292.2 43.9844H1284.18V36.1797C1285.45 35.8984 1286.95 35.6406 1288.68 35.4062C1290.46 35.1719 1292.34 34.9609 1294.3 34.7734C1296.27 34.5391 1298.29 34.375 1300.35 34.2812C1302.41 34.1406 1304.41 34.0703 1306.33 34.0703C1307.97 34.0703 1309.63 34.1641 1311.32 34.3516C1313.05 34.4922 1315.3 34.7969 1318.07 35.2656V43.4922C1322.2 40.1172 1326.67 37.5859 1331.5 35.8984C1336.38 34.2109 1341.06 33.3672 1345.56 33.3672C1348.8 33.3672 1351.7 33.8594 1354.28 34.8438C1356.86 35.8281 1359.04 37.3047 1360.82 39.2734C1362.65 41.1953 1364.03 43.5859 1364.97 46.4453C1365.95 49.3047 1366.45 52.6094 1366.45 56.3594ZM1397.73 35.125L1399.49 23.1016C1399.68 21.9766 1399.98 20.7812 1400.41 19.5156C1400.83 18.2031 1401.3 16.9375 1401.81 15.7188L1402.87 13.0469H1418.83V35.125H1440.48V38.7812C1440.48 40.0469 1440.3 41.0547 1439.92 41.8047C1439.55 42.5547 1439.03 43.1172 1438.38 43.4922C1437.72 43.8672 1436.92 44.125 1435.98 44.2656C1435.09 44.3594 1434.11 44.4062 1433.03 44.4062C1432.42 44.4062 1431.79 44.4062 1431.13 44.4062C1430.48 44.3594 1429.82 44.3359 1429.16 44.3359H1418.83V83.2188C1418.83 88 1419.37 91.4922 1420.45 93.6953C1421.52 95.8984 1423.47 97 1426.28 97C1427.22 97 1428.09 96.8359 1428.88 96.5078C1429.73 96.1328 1430.48 95.6875 1431.13 95.1719C1431.79 94.6562 1432.33 94.1172 1432.75 93.5547C1433.17 92.9453 1433.43 92.4297 1433.52 92.0078C1433.57 91.8672 1433.64 91.5156 1433.73 90.9531C1433.83 90.3438 1433.92 89.6406 1434.02 88.8438C1434.16 88 1434.3 87.1094 1434.44 86.1719C1434.58 85.1875 1434.7 84.2734 1434.79 83.4297H1447.52V101.078C1444.19 103.141 1440.39 104.664 1436.12 105.648C1431.86 106.633 1427.12 107.125 1421.92 107.125C1413.95 107.125 1407.79 105.32 1403.43 101.711C1399.07 98.0547 1396.89 92.3125 1396.89 84.4844V44.3359H1383.25V39.9062C1383.25 38.6875 1383.6 37.8438 1384.3 37.375C1385.05 36.8594 1386.06 36.4844 1387.33 36.25C1389.02 35.9688 1390.75 35.7578 1392.53 35.6172C1394.31 35.4766 1396.05 35.3125 1397.73 35.125ZM1459.47 81.8125L1472.62 84.2734L1473.67 95.5938C1475.17 96.3906 1476.86 96.9766 1478.73 97.3516C1480.66 97.7266 1482.93 97.9141 1485.55 97.9141C1489.26 97.9141 1492.05 97.0703 1493.92 95.3828C1495.84 93.6484 1496.8 91.5391 1496.8 89.0547C1496.8 87.6953 1496.43 86.4766 1495.68 85.3984C1494.93 84.2734 1493.95 83.2656 1492.73 82.375C1491.51 81.4844 1490.1 80.6875 1488.51 79.9844C1486.91 79.2344 1485.27 78.5547 1483.59 77.9453C1481.9 77.2891 1480.23 76.6797 1478.59 76.1172C1477 75.5547 1475.52 74.9688 1474.16 74.3594C1471.4 73.1875 1468.96 71.9453 1466.85 70.6328C1464.74 69.2734 1462.94 67.7969 1461.44 66.2031C1459.98 64.6094 1458.88 62.8281 1458.13 60.8594C1457.38 58.8906 1457.01 56.6641 1457.01 54.1797C1457.01 47.6172 1459.73 42.4844 1465.16 38.7812C1470.6 35.0781 1478.59 33.2266 1489.14 33.2266C1494.81 33.2266 1499.78 33.7656 1504.05 34.8438C1508.36 35.875 1511.85 37.3516 1514.52 39.2734C1514.24 41.1953 1513.75 43.7031 1513.05 46.7969C1512.39 49.8438 1511.73 52.9844 1511.08 56.2188L1499.69 54.3906C1499.55 52.5156 1499.41 50.7578 1499.27 49.1172C1499.17 47.4766 1499.05 45.9766 1498.91 44.6172C1497.37 43.8672 1495.68 43.3984 1493.85 43.2109C1492.02 42.9766 1489.98 42.8594 1487.73 42.8594C1484.36 42.8594 1481.78 43.5625 1480 44.9688C1478.22 46.3281 1477.33 48.2734 1477.33 50.8047C1477.33 52.7734 1478.03 54.4375 1479.44 55.7969C1480.84 57.1094 1482.6 58.2812 1484.71 59.3125C1486.87 60.3438 1489.19 61.2812 1491.67 62.125C1494.2 62.9219 1496.59 63.7656 1498.84 64.6562C1505.59 67.375 1510.59 70.375 1513.82 73.6562C1517.05 76.8906 1518.67 80.7344 1518.67 85.1875C1518.67 89.1719 1517.85 92.5938 1516.21 95.4531C1514.57 98.2656 1512.32 100.586 1509.46 102.414C1506.65 104.195 1503.34 105.508 1499.55 106.352C1495.75 107.195 1491.72 107.617 1487.45 107.617C1484.64 107.617 1481.69 107.43 1478.59 107.055C1475.5 106.68 1472.52 106.164 1469.66 105.508C1466.85 104.805 1464.23 104.008 1461.79 103.117C1459.4 102.18 1457.48 101.148 1456.02 100.023L1459.47 81.8125Z" fill="#387CF6"/>
</svg>
